<?xml version="1.0" encoding="UTF-8" standalone="no"?>
<!DOCTYPE svg PUBLIC "-//W3C//DTD SVG 1.1//EN"
 "http://www.w3.org/Graphics/SVG/1.1/DTD/svg11.dtd">
<!-- Generated by graphviz version 2.50.0 (20211204.2007)
 -->
<!-- Pages: 1 -->
<svg width="1594pt" height="220pt"
 viewBox="0.00 0.00 1593.58 220.01" xmlns="http://www.w3.org/2000/svg" xmlns:xlink="http://www.w3.org/1999/xlink">
<g id="graph0" class="graph" transform="scale(1 1) rotate(0) translate(4 216.01)">
<polygon fill="white" stroke="transparent" points="-4,4 -4,-216.01 1589.58,-216.01 1589.58,4 -4,4"/>
<!-- &#45;1 -->
<g id="node1" class="node">
<title>&#45;1</title>
<polygon fill="lightgray" stroke="black" points="114,-102.28 90,-102.28 90,-84.28 114,-84.28 114,-102.28"/>
<text text-anchor="middle" x="102" y="-91.08" font-family="Times New Roman,serif" font-size="9.00">&#45;1</text>
</g>
<!-- 0 -->
<g id="node33" class="node">
<title>0</title>
<ellipse fill="lightblue" stroke="black" cx="57" cy="-14.85" rx="14.7" ry="14.7"/>
<text text-anchor="middle" x="57" y="-12.65" font-family="Times New Roman,serif" font-size="9.00">0</text>
</g>
<!-- &#45;1&#45;&gt;0 -->
<g id="edge1" class="edge">
<title>&#45;1&#45;&gt;0</title>
<path fill="none" stroke="red" stroke-width="3.92" d="M97.18,-84.1C90.61,-72.94 78.6,-52.54 69.42,-36.94"/>
<polygon fill="red" stroke="red" stroke-width="3.92" points="72.23,-34.82 64.14,-27.98 66.2,-38.37 72.23,-34.82"/>
</g>
<!-- 1 -->
<g id="node34" class="node">
<title>1</title>
<ellipse fill="lightblue" stroke="black" cx="147" cy="-14.85" rx="14.7" ry="14.7"/>
<text text-anchor="middle" x="147" y="-12.65" font-family="Times New Roman,serif" font-size="9.00">1</text>
</g>
<!-- &#45;1&#45;&gt;1 -->
<g id="edge2" class="edge">
<title>&#45;1&#45;&gt;1</title>
<path fill="none" stroke="red" stroke-width="3.44" d="M106.82,-84.1C113.39,-72.94 125.4,-52.54 134.58,-36.94"/>
<polygon fill="red" stroke="red" stroke-width="3.44" points="137.8,-38.37 139.86,-27.98 131.77,-34.82 137.8,-38.37"/>
</g>
<!-- &#45;2 -->
<g id="node2" class="node">
<title>&#45;2</title>
<polygon fill="lightgray" stroke="black" points="435,-193.43 411,-193.43 411,-175.43 435,-175.43 435,-193.43"/>
<text text-anchor="middle" x="423" y="-182.23" font-family="Times New Roman,serif" font-size="9.00">&#45;2</text>
</g>
<!-- &#45;3 -->
<g id="node3" class="node">
<title>&#45;3</title>
<polygon fill="lightgray" stroke="black" points="477,-193.43 453,-193.43 453,-175.43 477,-175.43 477,-193.43"/>
<text text-anchor="middle" x="465" y="-182.23" font-family="Times New Roman,serif" font-size="9.00">&#45;3</text>
</g>
<!-- &#45;4 -->
<g id="node4" class="node">
<title>&#45;4</title>
<polygon fill="lightgray" stroke="black" points="519,-193.43 495,-193.43 495,-175.43 519,-175.43 519,-193.43"/>
<text text-anchor="middle" x="507" y="-182.23" font-family="Times New Roman,serif" font-size="9.00">&#45;4</text>
</g>
<!-- &#45;5 -->
<g id="node5" class="node">
<title>&#45;5</title>
<polygon fill="lightgray" stroke="black" points="561,-193.43 537,-193.43 537,-175.43 561,-175.43 561,-193.43"/>
<text text-anchor="middle" x="549" y="-182.23" font-family="Times New Roman,serif" font-size="9.00">&#45;5</text>
</g>
<!-- &#45;6 -->
<g id="node6" class="node">
<title>&#45;6</title>
<polygon fill="lightgray" stroke="black" points="603,-193.43 579,-193.43 579,-175.43 603,-175.43 603,-193.43"/>
<text text-anchor="middle" x="591" y="-182.23" font-family="Times New Roman,serif" font-size="9.00">&#45;6</text>
</g>
<!-- &#45;7 -->
<g id="node7" class="node">
<title>&#45;7</title>
<polygon fill="lightgray" stroke="black" points="645,-193.43 621,-193.43 621,-175.43 645,-175.43 645,-193.43"/>
<text text-anchor="middle" x="633" y="-182.23" font-family="Times New Roman,serif" font-size="9.00">&#45;7</text>
</g>
<!-- &#45;8 -->
<g id="node8" class="node">
<title>&#45;8</title>
<polygon fill="lightgray" stroke="black" points="24,-102.28 0,-102.28 0,-84.28 24,-84.28 24,-102.28"/>
<text text-anchor="middle" x="12" y="-91.08" font-family="Times New Roman,serif" font-size="9.00">&#45;8</text>
</g>
<!-- &#45;8&#45;&gt;0 -->
<g id="edge3" class="edge">
<title>&#45;8&#45;&gt;0</title>
<path fill="none" stroke="red" stroke-width="4.17" d="M16.82,-84.1C23.39,-72.94 35.4,-52.54 44.58,-36.94"/>
<polygon fill="red" stroke="red" stroke-width="4.17" points="47.93,-38.45 49.86,-27.98 41.64,-34.74 47.93,-38.45"/>
</g>
<!-- &#45;9 -->
<g id="node9" class="node">
<title>&#45;9</title>
<polygon fill="lightgray" stroke="black" points="687,-193.43 663,-193.43 663,-175.43 687,-175.43 687,-193.43"/>
<text text-anchor="middle" x="675" y="-182.23" font-family="Times New Roman,serif" font-size="9.00">&#45;9</text>
</g>
<!-- &#45;10 -->
<g id="node10" class="node">
<title>&#45;10</title>
<polygon fill="lightgray" stroke="black" points="734.5,-193.43 705.5,-193.43 705.5,-175.43 734.5,-175.43 734.5,-193.43"/>
<text text-anchor="middle" x="720" y="-182.23" font-family="Times New Roman,serif" font-size="9.00">&#45;10</text>
</g>
<!-- &#45;11 -->
<g id="node11" class="node">
<title>&#45;11</title>
<polygon fill="lightgray" stroke="black" points="781.5,-193.43 752.5,-193.43 752.5,-175.43 781.5,-175.43 781.5,-193.43"/>
<text text-anchor="middle" x="767" y="-182.23" font-family="Times New Roman,serif" font-size="9.00">&#45;11</text>
</g>
<!-- 3 -->
<g id="node36" class="node">
<title>3</title>
<ellipse fill="lightblue" stroke="black" cx="767" cy="-93.28" rx="14.7" ry="14.7"/>
<text text-anchor="middle" x="767" y="-91.08" font-family="Times New Roman,serif" font-size="9.00">3</text>
</g>
<!-- &#45;11&#45;&gt;3 -->
<g id="edge5" class="edge">
<title>&#45;11&#45;&gt;3</title>
<path fill="none" stroke="red" stroke-width="3.87" d="M767,-175.2C767,-162.45 767,-137.4 767,-118.53"/>
<polygon fill="red" stroke="red" stroke-width="3.87" points="770.5,-118.28 767,-108.28 763.5,-118.28 770.5,-118.28"/>
</g>
<!-- &#45;12 -->
<g id="node12" class="node">
<title>&#45;12</title>
<polygon fill="lightgray" stroke="black" points="204.5,-193.43 175.5,-193.43 175.5,-175.43 204.5,-175.43 204.5,-193.43"/>
<text text-anchor="middle" x="190" y="-182.23" font-family="Times New Roman,serif" font-size="9.00">&#45;12</text>
</g>
<!-- 68706 -->
<g id="node38" class="node">
<title>68706</title>
<ellipse fill="white" stroke="black" cx="207" cy="-93.28" rx="27.65" ry="27.65"/>
<text text-anchor="middle" x="207" y="-91.08" font-family="Times New Roman,serif" font-size="9.00">68706</text>
</g>
<!-- &#45;12&#45;&gt;68706 -->
<g id="edge8" class="edge">
<title>&#45;12&#45;&gt;68706</title>
<path fill="none" stroke="red" stroke-width="0.51" d="M191.57,-175.2C193.52,-164.99 196.96,-146.91 200.11,-130.43"/>
<polygon fill="red" stroke="red" stroke-width="0.51" points="203.57,-130.93 202.01,-120.45 196.7,-129.62 203.57,-130.93"/>
</g>
<!-- &#45;13 -->
<g id="node13" class="node">
<title>&#45;13</title>
<polygon fill="lightgray" stroke="black" points="828.5,-193.43 799.5,-193.43 799.5,-175.43 828.5,-175.43 828.5,-193.43"/>
<text text-anchor="middle" x="814" y="-182.23" font-family="Times New Roman,serif" font-size="9.00">&#45;13</text>
</g>
<!-- &#45;14 -->
<g id="node14" class="node">
<title>&#45;14</title>
<polygon fill="lightgray" stroke="black" points="251.5,-193.43 222.5,-193.43 222.5,-175.43 251.5,-175.43 251.5,-193.43"/>
<text text-anchor="middle" x="237" y="-182.23" font-family="Times New Roman,serif" font-size="9.00">&#45;14</text>
</g>
<!-- 4 -->
<g id="node37" class="node">
<title>4</title>
<ellipse fill="lightblue" stroke="black" cx="284" cy="-93.28" rx="14.7" ry="14.7"/>
<text text-anchor="middle" x="284" y="-91.08" font-family="Times New Roman,serif" font-size="9.00">4</text>
</g>
<!-- &#45;14&#45;&gt;4 -->
<g id="edge12" class="edge">
<title>&#45;14&#45;&gt;4</title>
<path fill="none" stroke="red" stroke-width="0.17" d="M241.34,-175.2C248.41,-161.78 262.66,-134.75 272.74,-115.63"/>
<polygon fill="red" stroke="red" stroke-width="0.17" points="275.87,-117.2 277.44,-106.72 269.68,-113.93 275.87,-117.2"/>
</g>
<!-- &#45;14&#45;&gt;68706 -->
<g id="edge11" class="edge">
<title>&#45;14&#45;&gt;68706</title>
<path fill="none" stroke="green" stroke-width="0.47" stroke-dasharray="1,5" d="M234.23,-175.2C230.72,-164.75 224.42,-146.06 218.77,-129.26"/>
<polygon fill="green" stroke="green" stroke-width="0.47" points="222.05,-128.04 215.55,-119.67 215.42,-130.27 222.05,-128.04"/>
</g>
<!-- &#45;15 -->
<g id="node15" class="node">
<title>&#45;15</title>
<polygon fill="lightgray" stroke="black" points="345.5,-193.43 316.5,-193.43 316.5,-175.43 345.5,-175.43 345.5,-193.43"/>
<text text-anchor="middle" x="331" y="-182.23" font-family="Times New Roman,serif" font-size="9.00">&#45;15</text>
</g>
<!-- 2 -->
<g id="node35" class="node">
<title>2</title>
<ellipse fill="lightblue" stroke="black" cx="355" cy="-93.28" rx="14.7" ry="14.7"/>
<text text-anchor="middle" x="355" y="-91.08" font-family="Times New Roman,serif" font-size="9.00">2</text>
</g>
<!-- &#45;15&#45;&gt;2 -->
<g id="edge4" class="edge">
<title>&#45;15&#45;&gt;2</title>
<path fill="none" stroke="red" stroke-width="2.69" d="M333.21,-175.2C336.7,-162.25 343.59,-136.64 348.7,-117.69"/>
<polygon fill="red" stroke="red" stroke-width="2.69" points="352.1,-118.53 351.32,-107.96 345.34,-116.71 352.1,-118.53"/>
</g>
<!-- &#45;15&#45;&gt;4 -->
<g id="edge10" class="edge">
<title>&#45;15&#45;&gt;4</title>
<path fill="none" stroke="green" stroke-width="0.29" stroke-dasharray="1,5" d="M326.66,-175.2C319.59,-161.78 305.34,-134.75 295.26,-115.63"/>
<polygon fill="green" stroke="green" stroke-width="0.29" points="298.32,-113.93 290.56,-106.72 292.13,-117.2 298.32,-113.93"/>
</g>
<!-- &#45;16 -->
<g id="node16" class="node">
<title>&#45;16</title>
<polygon fill="lightgray" stroke="black" points="875.5,-193.43 846.5,-193.43 846.5,-175.43 875.5,-175.43 875.5,-193.43"/>
<text text-anchor="middle" x="861" y="-182.23" font-family="Times New Roman,serif" font-size="9.00">&#45;16</text>
</g>
<!-- &#45;17 -->
<g id="node17" class="node">
<title>&#45;17</title>
<polygon fill="lightgray" stroke="black" points="922.5,-193.43 893.5,-193.43 893.5,-175.43 922.5,-175.43 922.5,-193.43"/>
<text text-anchor="middle" x="908" y="-182.23" font-family="Times New Roman,serif" font-size="9.00">&#45;17</text>
</g>
<!-- &#45;18 -->
<g id="node18" class="node">
<title>&#45;18</title>
<polygon fill="lightgray" stroke="black" points="71.5,-102.28 42.5,-102.28 42.5,-84.28 71.5,-84.28 71.5,-102.28"/>
<text text-anchor="middle" x="57" y="-91.08" font-family="Times New Roman,serif" font-size="9.00">&#45;18</text>
</g>
<!-- &#45;18&#45;&gt;0 -->
<g id="edge9" class="edge">
<title>&#45;18&#45;&gt;0</title>
<path fill="none" stroke="green" stroke-width="0.2" d="M57,-84.1C57,-73.69 57,-55.24 57,-40.15"/>
<polygon fill="green" stroke="green" stroke-width="0.2" points="60.5,-39.91 57,-29.91 53.5,-39.91 60.5,-39.91"/>
</g>
<!-- &#45;19 -->
<g id="node19" class="node">
<title>&#45;19</title>
<polygon fill="lightgray" stroke="black" points="969.5,-193.43 940.5,-193.43 940.5,-175.43 969.5,-175.43 969.5,-193.43"/>
<text text-anchor="middle" x="955" y="-182.23" font-family="Times New Roman,serif" font-size="9.00">&#45;19</text>
</g>
<!-- &#45;20 -->
<g id="node20" class="node">
<title>&#45;20</title>
<polygon fill="lightgray" stroke="black" points="1016.5,-193.43 987.5,-193.43 987.5,-175.43 1016.5,-175.43 1016.5,-193.43"/>
<text text-anchor="middle" x="1002" y="-182.23" font-family="Times New Roman,serif" font-size="9.00">&#45;20</text>
</g>
<!-- &#45;21 -->
<g id="node21" class="node">
<title>&#45;21</title>
<polygon fill="lightgray" stroke="black" points="1063.5,-193.43 1034.5,-193.43 1034.5,-175.43 1063.5,-175.43 1063.5,-193.43"/>
<text text-anchor="middle" x="1049" y="-182.23" font-family="Times New Roman,serif" font-size="9.00">&#45;21</text>
</g>
<!-- &#45;22 -->
<g id="node22" class="node">
<title>&#45;22</title>
<polygon fill="lightgray" stroke="black" points="1110.5,-193.43 1081.5,-193.43 1081.5,-175.43 1110.5,-175.43 1110.5,-193.43"/>
<text text-anchor="middle" x="1096" y="-182.23" font-family="Times New Roman,serif" font-size="9.00">&#45;22</text>
</g>
<!-- &#45;23 -->
<g id="node23" class="node">
<title>&#45;23</title>
<polygon fill="lightgray" stroke="black" points="1157.5,-193.43 1128.5,-193.43 1128.5,-175.43 1157.5,-175.43 1157.5,-193.43"/>
<text text-anchor="middle" x="1143" y="-182.23" font-family="Times New Roman,serif" font-size="9.00">&#45;23</text>
</g>
<!-- &#45;24 -->
<g id="node24" class="node">
<title>&#45;24</title>
<polygon fill="lightgray" stroke="black" points="1204.5,-193.43 1175.5,-193.43 1175.5,-175.43 1204.5,-175.43 1204.5,-193.43"/>
<text text-anchor="middle" x="1190" y="-182.23" font-family="Times New Roman,serif" font-size="9.00">&#45;24</text>
</g>
<!-- &#45;25 -->
<g id="node25" class="node">
<title>&#45;25</title>
<polygon fill="lightgray" stroke="black" points="1251.5,-193.43 1222.5,-193.43 1222.5,-175.43 1251.5,-175.43 1251.5,-193.43"/>
<text text-anchor="middle" x="1237" y="-182.23" font-family="Times New Roman,serif" font-size="9.00">&#45;25</text>
</g>
<!-- &#45;26 -->
<g id="node26" class="node">
<title>&#45;26</title>
<polygon fill="lightgray" stroke="black" points="1298.5,-193.43 1269.5,-193.43 1269.5,-175.43 1298.5,-175.43 1298.5,-193.43"/>
<text text-anchor="middle" x="1284" y="-182.23" font-family="Times New Roman,serif" font-size="9.00">&#45;26</text>
</g>
<!-- &#45;27 -->
<g id="node27" class="node">
<title>&#45;27</title>
<polygon fill="lightgray" stroke="black" points="161.5,-102.28 132.5,-102.28 132.5,-84.28 161.5,-84.28 161.5,-102.28"/>
<text text-anchor="middle" x="147" y="-91.08" font-family="Times New Roman,serif" font-size="9.00">&#45;27</text>
</g>
<!-- &#45;27&#45;&gt;1 -->
<g id="edge7" class="edge">
<title>&#45;27&#45;&gt;1</title>
<path fill="none" stroke="red" stroke-width="0.48" d="M147,-84.1C147,-73.69 147,-55.24 147,-40.15"/>
<polygon fill="red" stroke="red" stroke-width="0.48" points="150.5,-39.91 147,-29.91 143.5,-39.91 150.5,-39.91"/>
</g>
<!-- &#45;28 -->
<g id="node28" class="node">
<title>&#45;28</title>
<polygon fill="lightgray" stroke="black" points="1345.5,-193.43 1316.5,-193.43 1316.5,-175.43 1345.5,-175.43 1345.5,-193.43"/>
<text text-anchor="middle" x="1331" y="-182.23" font-family="Times New Roman,serif" font-size="9.00">&#45;28</text>
</g>
<!-- &#45;29 -->
<g id="node29" class="node">
<title>&#45;29</title>
<polygon fill="lightgray" stroke="black" points="298.5,-193.43 269.5,-193.43 269.5,-175.43 298.5,-175.43 298.5,-193.43"/>
<text text-anchor="middle" x="284" y="-182.23" font-family="Times New Roman,serif" font-size="9.00">&#45;29</text>
</g>
<!-- &#45;29&#45;&gt;4 -->
<g id="edge13" class="edge">
<title>&#45;29&#45;&gt;4</title>
<path fill="none" stroke="green" stroke-width="0.44" d="M284,-175.2C284,-162.45 284,-137.4 284,-118.53"/>
<polygon fill="green" stroke="green" stroke-width="0.44" points="287.5,-118.28 284,-108.28 280.5,-118.28 287.5,-118.28"/>
</g>
<!-- &#45;30 -->
<g id="node30" class="node">
<title>&#45;30</title>
<polygon fill="lightgray" stroke="black" points="392.5,-193.43 363.5,-193.43 363.5,-175.43 392.5,-175.43 392.5,-193.43"/>
<text text-anchor="middle" x="378" y="-182.23" font-family="Times New Roman,serif" font-size="9.00">&#45;30</text>
</g>
<!-- &#45;30&#45;&gt;2 -->
<g id="edge14" class="edge">
<title>&#45;30&#45;&gt;2</title>
<path fill="none" stroke="green" stroke-width="0.35" d="M375.88,-175.2C372.54,-162.25 365.93,-136.64 361.04,-117.69"/>
<polygon fill="green" stroke="green" stroke-width="0.35" points="364.42,-116.77 358.53,-107.96 357.64,-118.52 364.42,-116.77"/>
</g>
<!-- &#45;31 -->
<g id="node31" class="node">
<title>&#45;31</title>
<polygon fill="lightgray" stroke="black" points="1392.5,-193.43 1363.5,-193.43 1363.5,-175.43 1392.5,-175.43 1392.5,-193.43"/>
<text text-anchor="middle" x="1378" y="-182.23" font-family="Times New Roman,serif" font-size="9.00">&#45;31</text>
</g>
<!-- &#45;32 -->
<g id="node32" class="node">
<title>&#45;32</title>
<polygon fill="lightgray" stroke="black" points="1439.5,-193.43 1410.5,-193.43 1410.5,-175.43 1439.5,-175.43 1439.5,-193.43"/>
<text text-anchor="middle" x="1425" y="-182.23" font-family="Times New Roman,serif" font-size="9.00">&#45;32</text>
</g>
<!-- 68706&#45;&gt;1 -->
<g id="edge6" class="edge">
<title>68706&#45;&gt;1</title>
<path fill="none" stroke="red" stroke-width="5.81" d="M190.29,-70.99C181.42,-59.69 170.62,-45.93 162.02,-34.98"/>
<polygon fill="red" stroke="red" stroke-width="5.81" points="165.85,-31.63 155.68,-26.9 157.85,-37.91 165.85,-31.63"/>
</g>
<!-- 90433 -->
<g id="node39" class="node">
<title>90433</title>
<ellipse fill="white" stroke="black" cx="1485" cy="-184.43" rx="27.65" ry="27.65"/>
<text text-anchor="middle" x="1485" y="-182.23" font-family="Times New Roman,serif" font-size="9.00">90433</text>
</g>
<!-- 80785 -->
<g id="node40" class="node">
<title>80785</title>
<ellipse fill="white" stroke="black" cx="1558" cy="-184.43" rx="27.65" ry="27.65"/>
<text text-anchor="middle" x="1558" y="-182.23" font-family="Times New Roman,serif" font-size="9.00">80785</text>
</g>
</g>
</svg>
